<mxfile host="app.diagrams.net" modified="2021-05-21T17:04:45.820Z" agent="5.0 (X11; Linux x86_64) AppleWebKit/537.36 (KHTML, like Gecko) Chrome/90.0.4430.212 Safari/537.36" etag="nZoMUFklryG9ViDFhsbg" version="14.6.13" type="github">
  <diagram name="Page-1" id="ad52d381-51e7-2e0d-a935-2d0ddd2fd229">
    <mxGraphModel dx="2031" dy="1106" grid="1" gridSize="10" guides="1" tooltips="1" connect="1" arrows="1" fold="1" page="1" pageScale="1" pageWidth="1100" pageHeight="850" background="none" math="0" shadow="0">
      <root>
        <mxCell id="0" />
        <mxCell id="1" parent="0" />
        <mxCell id="4Z3fvCkt99TCQZcz4V7g-3" value="products" style="rounded=0;whiteSpace=wrap;html=1;" vertex="1" parent="1">
          <mxGeometry x="160" y="290" width="120" height="60" as="geometry" />
        </mxCell>
        <mxCell id="4Z3fvCkt99TCQZcz4V7g-4" value="id" style="ellipse;whiteSpace=wrap;html=1;" vertex="1" parent="1">
          <mxGeometry x="170" y="160" width="70" height="50" as="geometry" />
        </mxCell>
        <mxCell id="4Z3fvCkt99TCQZcz4V7g-5" value="category" style="ellipse;whiteSpace=wrap;html=1;" vertex="1" parent="1">
          <mxGeometry x="180" y="475" width="80" height="60" as="geometry" />
        </mxCell>
        <mxCell id="4Z3fvCkt99TCQZcz4V7g-6" value="name" style="ellipse;whiteSpace=wrap;html=1;" vertex="1" parent="1">
          <mxGeometry x="80" y="100" width="80" height="60" as="geometry" />
        </mxCell>
        <mxCell id="4Z3fvCkt99TCQZcz4V7g-7" value="desc" style="ellipse;whiteSpace=wrap;html=1;" vertex="1" parent="1">
          <mxGeometry x="40" y="190" width="70" height="60" as="geometry" />
        </mxCell>
        <mxCell id="4Z3fvCkt99TCQZcz4V7g-8" value="price" style="ellipse;whiteSpace=wrap;html=1;" vertex="1" parent="1">
          <mxGeometry x="60" y="280" width="70" height="50" as="geometry" />
        </mxCell>
        <mxCell id="4Z3fvCkt99TCQZcz4V7g-9" value="new_price" style="ellipse;whiteSpace=wrap;html=1;" vertex="1" parent="1">
          <mxGeometry x="20" y="350" width="70" height="50" as="geometry" />
        </mxCell>
        <mxCell id="4Z3fvCkt99TCQZcz4V7g-10" value="main_photo" style="ellipse;whiteSpace=wrap;html=1;" vertex="1" parent="1">
          <mxGeometry x="270" y="180" width="80" height="70" as="geometry" />
        </mxCell>
        <mxCell id="4Z3fvCkt99TCQZcz4V7g-11" value="show" style="ellipse;whiteSpace=wrap;html=1;" vertex="1" parent="1">
          <mxGeometry x="130" y="390" width="70" height="60" as="geometry" />
        </mxCell>
        <mxCell id="4Z3fvCkt99TCQZcz4V7g-12" value="del" style="ellipse;whiteSpace=wrap;html=1;" vertex="1" parent="1">
          <mxGeometry x="30" y="420" width="70" height="50" as="geometry" />
        </mxCell>
        <mxCell id="4Z3fvCkt99TCQZcz4V7g-13" value="order_products" style="rounded=0;whiteSpace=wrap;html=1;" vertex="1" parent="1">
          <mxGeometry x="590" y="110" width="120" height="60" as="geometry" />
        </mxCell>
        <mxCell id="4Z3fvCkt99TCQZcz4V7g-14" value="order" style="ellipse;whiteSpace=wrap;html=1;" vertex="1" parent="1">
          <mxGeometry x="740" y="80" width="80" height="50" as="geometry" />
        </mxCell>
        <mxCell id="4Z3fvCkt99TCQZcz4V7g-15" value="product" style="ellipse;whiteSpace=wrap;html=1;" vertex="1" parent="1">
          <mxGeometry x="470" y="60" width="70" height="50" as="geometry" />
        </mxCell>
        <mxCell id="4Z3fvCkt99TCQZcz4V7g-16" value="price" style="ellipse;whiteSpace=wrap;html=1;" vertex="1" parent="1">
          <mxGeometry x="610" y="20" width="80" height="60" as="geometry" />
        </mxCell>
        <mxCell id="4Z3fvCkt99TCQZcz4V7g-17" value="specifications" style="rounded=0;whiteSpace=wrap;html=1;" vertex="1" parent="1">
          <mxGeometry x="590" y="310" width="120" height="60" as="geometry" />
        </mxCell>
        <mxCell id="4Z3fvCkt99TCQZcz4V7g-18" value="value" style="ellipse;whiteSpace=wrap;html=1;" vertex="1" parent="1">
          <mxGeometry x="740" y="260" width="70" height="50" as="geometry" />
        </mxCell>
        <mxCell id="4Z3fvCkt99TCQZcz4V7g-19" value="name" style="ellipse;whiteSpace=wrap;html=1;" vertex="1" parent="1">
          <mxGeometry x="630" y="230" width="70" height="50" as="geometry" />
        </mxCell>
        <mxCell id="4Z3fvCkt99TCQZcz4V7g-20" value="product" style="ellipse;whiteSpace=wrap;html=1;" vertex="1" parent="1">
          <mxGeometry x="480" y="210" width="80" height="50" as="geometry" />
        </mxCell>
        <mxCell id="4Z3fvCkt99TCQZcz4V7g-21" value="photos" style="rounded=0;whiteSpace=wrap;html=1;" vertex="1" parent="1">
          <mxGeometry x="590" y="500" width="120" height="60" as="geometry" />
        </mxCell>
        <mxCell id="4Z3fvCkt99TCQZcz4V7g-22" value="id" style="ellipse;whiteSpace=wrap;html=1;" vertex="1" parent="1">
          <mxGeometry x="740" y="450" width="80" height="50" as="geometry" />
        </mxCell>
        <mxCell id="4Z3fvCkt99TCQZcz4V7g-23" value="product" style="ellipse;whiteSpace=wrap;html=1;" vertex="1" parent="1">
          <mxGeometry x="510" y="415" width="80" height="60" as="geometry" />
        </mxCell>
        <mxCell id="4Z3fvCkt99TCQZcz4V7g-24" value="photo" style="ellipse;whiteSpace=wrap;html=1;" vertex="1" parent="1">
          <mxGeometry x="620" y="425" width="80" height="50" as="geometry" />
        </mxCell>
        <mxCell id="4Z3fvCkt99TCQZcz4V7g-25" value="categories" style="rounded=0;whiteSpace=wrap;html=1;" vertex="1" parent="1">
          <mxGeometry x="590" y="700" width="120" height="60" as="geometry" />
        </mxCell>
        <mxCell id="4Z3fvCkt99TCQZcz4V7g-26" value="id" style="ellipse;whiteSpace=wrap;html=1;" vertex="1" parent="1">
          <mxGeometry x="745" y="680" width="70" height="60" as="geometry" />
        </mxCell>
        <mxCell id="4Z3fvCkt99TCQZcz4V7g-27" value="name" style="ellipse;whiteSpace=wrap;html=1;" vertex="1" parent="1">
          <mxGeometry x="470" y="760" width="70" height="60" as="geometry" />
        </mxCell>
        <mxCell id="4Z3fvCkt99TCQZcz4V7g-28" value="parent" style="ellipse;whiteSpace=wrap;html=1;" vertex="1" parent="1">
          <mxGeometry x="670" y="780" width="70" height="60" as="geometry" />
        </mxCell>
        <mxCell id="4Z3fvCkt99TCQZcz4V7g-29" value="image" style="ellipse;whiteSpace=wrap;html=1;" vertex="1" parent="1">
          <mxGeometry x="640" y="610" width="70" height="50" as="geometry" />
        </mxCell>
        <mxCell id="4Z3fvCkt99TCQZcz4V7g-30" value="orders" style="rounded=0;whiteSpace=wrap;html=1;" vertex="1" parent="1">
          <mxGeometry x="1040" y="190" width="120" height="60" as="geometry" />
        </mxCell>
        <mxCell id="4Z3fvCkt99TCQZcz4V7g-31" value="id" style="ellipse;whiteSpace=wrap;html=1;" vertex="1" parent="1">
          <mxGeometry x="1150" y="100" width="70" height="50" as="geometry" />
        </mxCell>
        <mxCell id="4Z3fvCkt99TCQZcz4V7g-32" value="name" style="ellipse;whiteSpace=wrap;html=1;" vertex="1" parent="1">
          <mxGeometry x="920" y="80" width="90" height="60" as="geometry" />
        </mxCell>
        <mxCell id="4Z3fvCkt99TCQZcz4V7g-33" value="phone" style="ellipse;whiteSpace=wrap;html=1;" vertex="1" parent="1">
          <mxGeometry x="1040" y="60" width="70" height="50" as="geometry" />
        </mxCell>
        <mxCell id="4Z3fvCkt99TCQZcz4V7g-34" value="date" style="ellipse;whiteSpace=wrap;html=1;" vertex="1" parent="1">
          <mxGeometry x="1200" y="220" width="80" height="50" as="geometry" />
        </mxCell>
        <mxCell id="4Z3fvCkt99TCQZcz4V7g-35" value="users" style="rounded=0;whiteSpace=wrap;html=1;" vertex="1" parent="1">
          <mxGeometry x="1040" y="610" width="120" height="60" as="geometry" />
        </mxCell>
        <mxCell id="4Z3fvCkt99TCQZcz4V7g-36" value="id" style="ellipse;whiteSpace=wrap;html=1;" vertex="1" parent="1">
          <mxGeometry x="920" y="510" width="80" height="70" as="geometry" />
        </mxCell>
        <mxCell id="4Z3fvCkt99TCQZcz4V7g-37" value="email" style="ellipse;whiteSpace=wrap;html=1;" vertex="1" parent="1">
          <mxGeometry x="920" y="620" width="70" height="60" as="geometry" />
        </mxCell>
        <mxCell id="4Z3fvCkt99TCQZcz4V7g-38" value="password" style="ellipse;whiteSpace=wrap;html=1;" vertex="1" parent="1">
          <mxGeometry x="980" y="720" width="80" height="60" as="geometry" />
        </mxCell>
        <mxCell id="4Z3fvCkt99TCQZcz4V7g-39" value="first_name" style="ellipse;whiteSpace=wrap;html=1;" vertex="1" parent="1">
          <mxGeometry x="1200" y="500" width="80" height="60" as="geometry" />
        </mxCell>
        <mxCell id="4Z3fvCkt99TCQZcz4V7g-40" value="last_name" style="ellipse;whiteSpace=wrap;html=1;" vertex="1" parent="1">
          <mxGeometry x="1215" y="700" width="70" height="60" as="geometry" />
        </mxCell>
        <mxCell id="4Z3fvCkt99TCQZcz4V7g-41" value="middle_name" style="ellipse;whiteSpace=wrap;html=1;" vertex="1" parent="1">
          <mxGeometry x="1240" y="610" width="80" height="60" as="geometry" />
        </mxCell>
        <mxCell id="4Z3fvCkt99TCQZcz4V7g-42" value="role" style="ellipse;whiteSpace=wrap;html=1;" vertex="1" parent="1">
          <mxGeometry x="1100" y="735" width="70" height="50" as="geometry" />
        </mxCell>
      </root>
    </mxGraphModel>
  </diagram>
</mxfile>
